<svg id="Layer_1" data-name="Layer 1" xmlns="http://www.w3.org/2000/svg" viewBox="0 0 54.17 52"><defs><style>.cls-1{fill:#337ab7;}</style></defs><title>cart-icon-blue</title><path class="cls-1" d="M379.08,623.2H377l-6.78,20H343.06l-4.85-20-.48-2h0l-.22-.88-.05-.24h0l-3.12-12.88h-9.43v2h7.85l9.75,40.22a5,5,0,1,0,6.4,4.78,4.92,4.92,0,0,0-1-3h14.05a4.92,4.92,0,0,0-1,3,5,5,0,1,0,5-5H344.52l-1-4h28.07Zm-13.17,28a3,3,0,1,1-3,3A3,3,0,0,1,365.91,651.2Zm-22,0a3,3,0,1,1-3,3A3,3,0,0,1,343.91,651.2Z" transform="translate(-324.91 -607.2)"/></svg>