<svg width="159" height="110" viewBox="0 0 159 110" fill="none" xmlns="http://www.w3.org/2000/svg">
<g clip-path="url(#clip0_245_125)">
<path d="M44.4856 92.0671C43.3595 92.0671 42.2409 91.7547 41.2482 91.1373C39.4184 89.9993 38.322 88.0283 38.322 85.8713V52.7351C38.322 50.5707 39.4184 48.6071 41.2482 47.4691C43.078 46.3311 45.3227 46.2344 47.2488 47.2013L80.2519 63.7731C82.3558 64.8293 83.6596 66.9491 83.6596 69.3144C83.6596 71.6796 82.3558 73.7994 80.2519 74.8556L47.2488 91.4274C46.3746 91.8663 45.4264 92.0894 44.4856 92.0894V92.0671ZM44.4856 49.5071C43.9003 49.5071 43.3225 49.6707 42.8039 49.9905C41.8483 50.5781 41.2853 51.6046 41.2853 52.7277V85.8638C41.2853 86.987 41.8557 88.0134 42.8039 88.601C43.7596 89.1886 44.9226 89.2407 45.9227 88.7423L78.9258 72.1705C80.037 71.6127 80.6963 70.5342 80.6963 69.292C80.6963 68.0499 80.037 66.9714 78.9258 66.4136L45.9227 49.8418C45.4634 49.6112 44.9745 49.4996 44.4856 49.4996V49.5071Z" fill="#2CACE1"/>
<path d="M107.329 110H7.63034C3.42254 110 0 106.564 0 102.339V36.2675C0 32.0428 3.42254 28.6064 7.63034 28.6064H68.8583C69.6732 28.6064 70.3399 29.2759 70.3399 30.094C70.3399 30.9122 69.6732 31.5816 68.8583 31.5816H7.63034C5.05973 31.5816 2.96324 33.6866 2.96324 36.2675V102.339C2.96324 104.92 5.05973 107.025 7.63034 107.025H107.329C109.899 107.025 111.996 104.92 111.996 102.339V73.9557C111.996 73.1375 112.662 72.4681 113.477 72.4681C114.292 72.4681 114.959 73.1375 114.959 73.9557V102.339C114.959 106.564 111.536 110 107.329 110Z" fill="#2CACE1"/>
<path d="M88.8824 48.0789C86.0525 48.0789 83.4226 46.2268 82.5707 43.3632L79.6371 33.5228C79.1333 31.8344 79.3111 30.0418 80.1482 28.4873C80.9853 26.9328 82.3707 25.7948 84.0523 25.289L100.906 20.2163C101.284 20.1047 101.691 20.1419 102.032 20.3353C102.38 20.5213 102.632 20.8411 102.75 21.2204L108.618 40.879C108.855 41.6674 108.41 42.493 107.625 42.731L90.7714 47.8037C90.1418 47.9896 89.5121 48.0789 88.8824 48.0789V48.0789ZM100.343 23.5039L84.9042 28.1452C83.9782 28.4204 83.2152 29.0452 82.7559 29.9005C82.2966 30.7559 82.2003 31.7377 82.4744 32.6674L85.408 42.5079C85.9784 44.4269 88.0082 45.5202 89.9195 44.9475L105.358 40.3062L100.343 23.5039V23.5039Z" fill="#2CACE1"/>
<path d="M102.417 66.4731C101.884 66.4731 101.38 66.183 101.113 65.6921L90.8011 46.5542C90.4085 45.8327 90.6826 44.9253 91.4012 44.5385C92.1198 44.1443 93.0161 44.4195 93.4088 45.141L103.15 63.2153L110.455 61.0211L101.009 43.4898C100.617 42.7683 100.891 41.8609 101.61 41.4741C102.328 41.0799 103.225 41.3551 103.617 42.0766L113.929 61.2144C114.144 61.6087 114.166 62.0772 113.996 62.4938C113.826 62.9103 113.477 63.2227 113.055 63.3491L102.847 66.421C102.706 66.4656 102.565 66.4805 102.424 66.4805L102.417 66.4731Z" fill="#2CACE1"/>
<path d="M107.195 42.7906C106.529 42.7906 105.928 42.3368 105.758 41.66C105.558 40.8641 106.04 40.0534 106.84 39.8526C118.715 36.8699 130.501 36.498 141.873 38.7443L131.59 4.29168C122.945 12.8305 112.937 19.1378 101.817 23.0502C101.047 23.3254 100.202 22.9163 99.9279 22.1353C99.6538 21.3618 100.061 20.5139 100.839 20.2387C111.729 16.4081 121.53 10.1751 129.96 1.72558L131.249 0.431375C131.62 0.0594772 132.153 -0.089282 132.657 0.0446013C133.161 0.171047 133.561 0.557821 133.716 1.05616L145.421 40.2765C145.569 40.7749 145.443 41.3178 145.095 41.7046C144.74 42.0914 144.214 42.2625 143.702 42.1583L141.917 41.7864C130.783 39.4881 119.219 39.8079 107.551 42.7385C107.432 42.7682 107.306 42.7831 107.188 42.7831L107.195 42.7906Z" fill="#2CACE1"/>
<path d="M135.042 40.046C134.405 40.046 133.813 39.6294 133.62 38.9823L124.582 8.68753C124.345 7.89911 124.789 7.07349 125.575 6.83548C126.36 6.6049 127.182 7.04374 127.419 7.83217L136.457 38.127C136.694 38.9154 136.25 39.741 135.465 39.979C135.324 40.0237 135.183 40.0385 135.035 40.0385L135.042 40.046Z" fill="#2CACE1"/>
<path d="M150.244 18.7065C149.607 18.7065 149.014 18.2899 148.821 17.6428C148.584 16.8544 149.029 16.0288 149.814 15.7908L156.415 13.8048C157.2 13.5743 158.022 14.0131 158.259 14.8015C158.496 15.59 158.052 16.4156 157.267 16.6536L150.666 18.6395C150.525 18.6841 150.384 18.699 150.236 18.699L150.244 18.7065Z" fill="#2CACE1"/>
<path d="M143.873 9.60977C143.48 9.60977 143.095 9.45357 142.799 9.14862C142.235 8.55358 142.258 7.60896 142.85 7.04368L148.451 1.68834C149.044 1.12306 149.977 1.14537 150.547 1.74041C151.11 2.33545 151.088 3.28007 150.496 3.84535L144.895 9.20068C144.606 9.47589 144.243 9.60977 143.873 9.60977V9.60977Z" fill="#2CACE1"/>
<path d="M157.518 31.2097C157.43 31.2097 157.341 31.2022 157.252 31.1873L149.644 29.8039C148.836 29.6551 148.303 28.8816 148.451 28.0783C148.599 27.2675 149.362 26.732 150.17 26.8808L157.778 28.2642C158.585 28.413 159.119 29.1865 158.97 29.9898C158.845 30.7113 158.215 31.2097 157.511 31.2097H157.518Z" fill="#2CACE1"/>
</g>
<defs>
<clipPath id="clip0_245_125">
<rect width="159" height="110" fill="white"/>
</clipPath>
</defs>
</svg>
