<?xml version="1.0" encoding="utf-8"?>
<!-- Generator: Adobe Illustrator 22.1.0, SVG Export Plug-In . SVG Version: 6.00 Build 0)  -->
<svg version="1.1" id="Layer_1" xmlns="http://www.w3.org/2000/svg" xmlns:xlink="http://www.w3.org/1999/xlink" x="0px" y="0px"
	 viewBox="0 0 400 118.2" style="enable-background:new 0 0 400 118.2;" xml:space="preserve">
<style type="text/css">
	.st0{fill:#FFFFFF;}
	.st1{fill:url(#SVGID_1_);}
	.st2{filter:url(#Adobe_OpacityMaskFilter);}
	.st3{opacity:0.1;mask:url(#SVGID_2_);}
	.st4{fill:#050505;}
</style>
<path class="st0" d="M171.9,63.4h16.9v5.1h-12v9.9h10.5v4.9h-10.5v10.5h12v5.1h-16.9V63.4z"/>
<path class="st0" d="M220,98.9h-6l-9.2-28.1c0.1,2.6,0.2,7.9,0.2,10.6v17.5h-4.6V63.4h6l9.2,28.1c0-2.8-0.2-7.8-0.2-10.1V63.4h4.6
	V98.9z"/>
<path class="st0" d="M231.6,86.8V75.5c0-9.2,3.1-12.8,10-12.8c6.7,0,9.7,3.4,9.7,11.4h-4.8c0-4.4-1.4-6.2-4.9-6.2
	c-3.6,0-5.2,1.7-5.2,7v12.5c0,5.5,1.7,7,5.4,7c3.6,0,5.1-1.5,5.1-6.2v-4.8h-5.2v-4.9h10v20.5h-2.4l-0.8-2.8c-1.7,2.2-3.6,3.4-7,3.4
	C234.6,99.5,231.6,96,231.6,86.8z"/>
<path class="st0" d="M276.7,91.2h-8.8l-1.5,7.7h-5l7.9-35.6h6.1l7.9,35.6h-5L276.7,91.2z M268.8,86.3h6.9l-3.4-17.5h-0.1L268.8,86.3
	z"/>
<path class="st0" d="M292.2,86.8V75.5c0-9.2,3.1-12.8,10-12.8c6.7,0,9.7,3.4,9.7,11.4h-4.8c0-4.4-1.4-6.2-4.9-6.2
	c-3.6,0-5.2,1.7-5.2,7v12.5c0,5.5,1.7,7,5.4,7c3.6,0,5.1-1.5,5.1-6.2v-4.8h-5.2v-4.9h10v20.5H310l-0.8-2.8c-1.7,2.2-3.6,3.4-7,3.4
	C295.3,99.5,292.2,96,292.2,86.8z"/>
<path class="st0" d="M324.2,63.4H341v5.1h-12v9.9h10.5v4.9H329v10.5h12v5.1h-16.9V63.4z"/>
<path class="st0" d="M352.6,98.9V63.4h9.2c7,0,10.6,2.3,10.6,12.6v10.2c0,10.3-3.7,12.7-10.6,12.7H352.6z M357.4,68.5v25.3h4.2
	c4.3,0,5.9-1.9,5.9-7.2V75.4c0-6.3-2.1-6.9-5.9-6.9H357.4z"/>
<g>
	<path class="st0" d="M159,44.2h4.5c0,7-2.8,10-9.1,10c-6.5,0-9.4-3.1-9.4-11.2V33c0-8.1,2.9-11.2,9.4-11.2c6.3,0,9.1,3,9.1,10H159
		c0-3.9-1.4-5.5-4.6-5.5c-3.4,0-4.8,1.5-4.8,6.2v11c0,4.7,1.5,6.2,4.8,6.2C157.7,49.7,159,48.2,159,44.2z"/>
	<path class="st0" d="M189.1,53.7h-4.5V39.9h-9.1v13.8h-4.5V22.3h4.5v13.3h9.1V22.3h4.5V53.7z"/>
	<path class="st0" d="M197.3,22.3h8.8c6.3,0,9.4,1.9,9.4,10c0,5.2-1.4,7.9-4.4,9.1l4.9,12.2h-5l-4.5-11.4h-4.8v11.4h-4.5V22.3z
		 M206.1,37.9c3.3,0,4.7-1,4.7-5.5c0-4.5-1.4-5.6-4.7-5.6h-4.4v11.1H206.1z"/>
	<path class="st0" d="M223,22.3h4.5v31.4H223V22.3z"/>
	<path class="st0" d="M248.7,30.9c0-3.3-1.3-4.5-4.5-4.5c-3.1,0-4.6,1.3-4.6,4.3c0,3.2,0.9,4.4,5.5,5.2c6.9,1.2,8.7,3.6,8.7,8.9
		c0,6.9-3.3,9.5-9.6,9.5c-6.2,0-9.4-2.5-9.4-9.5h4.5c0,3.6,1.4,4.9,4.9,4.9c3.6,0,5-1.3,5-4.9c0-3-0.9-4.2-5.9-5.1
		c-5.6-1-8.2-3.4-8.2-9.1c0-5.5,2.8-8.8,9.1-8.8c6.2,0,9.1,2.5,9.1,9.1H248.7z"/>
	<path class="st0" d="M265.2,26.9h-6.3v-4.5H276v4.5h-6.3v26.8h-4.5V26.9z"/>
	<path class="st0" d="M282.4,22.3h4.5v31.4h-4.5V22.3z"/>
	<path class="st0" d="M307.4,46.9h-8.3l-1.4,6.8h-4.7l7.4-31.4h5.7l7.4,31.4h-4.7L307.4,46.9z M300.1,42.6h6.4l-3.2-15.4h-0.1
		L300.1,42.6z"/>
	<path class="st0" d="M338.2,53.7h-5.7l-8.6-24.8c0.1,2.3,0.2,7,0.2,9.4v15.4h-4.4V22.3h5.7l8.6,24.8c0-2.5-0.2-6.9-0.2-8.9V22.3
		h4.4V53.7z"/>
	<path class="st0" d="M346.4,22.3h4.5v31.4h-4.5V22.3z"/>
	<path class="st0" d="M363.6,26.9h-6.3v-4.5h17.2v4.5h-6.3v26.8h-4.5V26.9z"/>
	<path class="st0" d="M387,41.8l-7.7-19.5h4.9l5,14.2h0.1l5-14.2h4.9l-7.7,19.5v11.9H387V41.8z"/>
</g>
<g>
	<g>
		<g>
			<radialGradient id="SVGID_1_" cx="61.7488" cy="59.133" r="59.0862" gradientUnits="userSpaceOnUse">
				<stop  offset="0.1618" style="stop-color:#25A9E0"/>
				<stop  offset="0.2976" style="stop-color:#22A3DB;stop-opacity:0.99"/>
				<stop  offset="0.4795" style="stop-color:#1A92CE;stop-opacity:0.9765"/>
				<stop  offset="0.6866" style="stop-color:#0C76B7;stop-opacity:0.9613"/>
				<stop  offset="0.839" style="stop-color:#005DA3;stop-opacity:0.95"/>
			</radialGradient>
			<path class="st1" d="M98.7,60.6L111,72.8l-2.1,2.1L92.8,58.8l15.6-15.6l2.1,2.1L98.3,57.6h22.5c-0.4-14.9-6.3-28.5-15.8-38.7
				L73.3,50.3h16.6v3H67.8V27.7h3v20.8l32.2-31.8C92.6,6.7,78.7,0.4,63.2,0V19L75.5,6.8l2.1,2.1L61.5,24.9L45.9,9.3L48,7.2
				l12.2,12.2V0C45.1,0.4,31.3,6.5,21.1,16.2l32.4,32.2V27.7h3v25.5H34.4v-3H51L18.8,18.5C9.1,28.7,3.1,42.4,2.7,57.6h22.8
				L13.3,45.4l2.1-2.1l16.1,16.1L15.9,74.9l-2.1-2.1L26,60.6H2.7C3,75.8,9.2,89.6,19,99.9l32.7-32.6H34.4v-3h22.1v40.2h-3V69.7
				l-32.3,32.3c10.6,10,24.9,16.1,40.6,16.1c16,0,30.5-6.4,41.2-16.7L70.8,69.7v34.8h-3V64.3h22.1v3H72.6L105,99.4
				c9.5-10.2,15.4-23.8,15.8-38.8H98.7z"/>
		</g>
		<defs>
			<filter id="Adobe_OpacityMaskFilter" filterUnits="userSpaceOnUse" x="2.7" y="0" width="118.2" height="118.2">
				
					<feColorMatrix  type="matrix" values="-1 0 0 0 1  0 -1 0 0 1  0 0 -1 0 1  0 0 0 1 0" color-interpolation-filters="sRGB" result="source"/>
			</filter>
		</defs>
		<mask maskUnits="userSpaceOnUse" x="2.7" y="0" width="118.2" height="118.2" id="SVGID_2_">
			<g class="st2">
				
					<image style="overflow:visible;" width="510" height="511" xlink:href="45344939.jpg"  transform="matrix(0.24 0 0 0.24 0.48 -2.1812)">
				</image>
			</g>
		</mask>
		<g class="st3">
			<path class="st4" d="M98.7,60.6L111,72.8l-2.1,2.1L92.8,58.8l15.6-15.6l2.1,2.1L98.3,57.6h22.5c-0.4-14.9-6.3-28.5-15.8-38.7
				L73.3,50.3h16.6v3H67.8V27.7h3v20.8l32.2-31.8C92.6,6.7,78.7,0.4,63.2,0V19L75.5,6.8l2.1,2.1L61.5,24.9L45.9,9.3L48,7.2
				l12.2,12.2V0C45.1,0.4,31.3,6.5,21.1,16.2l32.4,32.2V27.7h3v25.5H34.4v-3H51L18.8,18.5C9.1,28.7,3.1,42.4,2.7,57.6h22.8
				L13.3,45.4l2.1-2.1l16.1,16.1L15.9,74.9l-2.1-2.1L26,60.6H2.7C3,75.8,9.2,89.6,19,99.9l32.7-32.6H34.4v-3h22.1v40.2h-3V69.7
				l-32.3,32.3c10.6,10,24.9,16.1,40.6,16.1c16,0,30.5-6.4,41.2-16.7L70.8,69.7v34.8h-3V64.3h22.1v3H72.6L105,99.4
				c9.5-10.2,15.4-23.8,15.8-38.8H98.7z"/>
		</g>
	</g>
	<g>
		<path class="st0" d="M34.4,50.3v3h22.1V27.7h-3v20.8L21.1,16.2c-0.8,0.7-1.5,1.5-2.2,2.2L51,50.3H34.4z"/>
		<path class="st0" d="M13.8,72.8l2.1,2.1l15.6-15.6L15.4,43.2l-2.1,2.1l12.2,12.2H2.7c0,0.5,0,1,0,1.5c0,0.5,0,1,0,1.5H26
			L13.8,72.8z"/>
		<path class="st0" d="M48,7.2l-2.1,2.1l15.6,15.6L77.6,8.9l-2.1-2.1L63.2,19V0c-0.5,0-1,0-1.5,0c-0.5,0-1,0-1.5,0v19.4L48,7.2z"/>
		<path class="st0" d="M110.5,45.4l-2.1-2.1L92.8,58.8l16.1,16.1l2.1-2.1L98.7,60.6h22.1c0-0.5,0-1,0-1.5c0-0.5,0-1,0-1.5H98.3
			L110.5,45.4z"/>
		<path class="st0" d="M70.8,27.7h-3v25.5h22.1v-3H73.3L105,18.8c-0.7-0.7-1.4-1.4-2.1-2.1L70.8,48.5V27.7z"/>
		<path class="st0" d="M89.8,67.3v-3H67.8v40.2h3V69.7l32.1,31.8c0.7-0.7,1.4-1.4,2.1-2.2L72.6,67.3H89.8z"/>
		<path class="st0" d="M53.4,104.5h3V64.3H34.4v3h17.3L19,99.9c0.7,0.7,1.4,1.5,2.2,2.2l32.3-32.3V104.5z"/>
	</g>
</g>
<path class="st0" d="M377.1,64h-1.6v5.6h-0.9V64H373v-0.7h4.1V64z"/>
<path class="st0" d="M379,63.4l1.5,5.1h0l1.5-5.1h1.1v6.3h-0.9v-2.4l0.1-2.4l0,0l-1.5,4.8h-0.6l-1.5-4.8l0,0l0.1,2.4v2.4h-0.9v-6.3
	H379z"/>
</svg>
