<?xml version="1.0" encoding="utf-8"?>
<!-- Generator: Adobe Illustrator 22.1.0, SVG Export Plug-In . SVG Version: 6.00 Build 0)  -->
<svg version="1.1" id="Layer_1" xmlns="http://www.w3.org/2000/svg" xmlns:xlink="http://www.w3.org/1999/xlink" x="0px" y="0px"
	 viewBox="0 0 396.6 118.2" style="enable-background:new 0 0 396.6 118.2;" xml:space="preserve">
<style type="text/css">
	.st0{fill:#005DA4;}
	.st1{fill:#808285;}
	.st2{fill:url(#SVGID_1_);}
	.st3{filter:url(#Adobe_OpacityMaskFilter);}
	.st4{opacity:0.1;mask:url(#SVGID_2_);}
	.st5{fill:#050606;}
	.st6{fill:#FFFFFF;}
</style>
<path class="st0" d="M169.2,63.4h16.9v5.1h-12v9.9h10.5v4.9h-10.5v10.5h12v5.1h-16.9V63.4z"/>
<path class="st0" d="M217.4,98.9h-6l-9.2-28.1c0.1,2.6,0.2,7.9,0.2,10.6v17.5h-4.6V63.4h6l9.2,28.1c0-2.8-0.2-7.8-0.2-10.1V63.4h4.6
	V98.9z"/>
<path class="st0" d="M228.9,86.8V75.5c0-9.2,3.1-12.8,10-12.8c6.7,0,9.7,3.4,9.7,11.4h-4.8c0-4.4-1.4-6.2-4.9-6.2
	c-3.6,0-5.2,1.7-5.2,7v12.5c0,5.5,1.7,7,5.4,7c3.6,0,5.1-1.5,5.1-6.2v-4.8h-5.2v-4.9h10v20.5h-2.4l-0.8-2.8c-1.7,2.2-3.6,3.4-7,3.4
	C232,99.5,228.9,96,228.9,86.8z"/>
<path class="st0" d="M274,91.2h-8.8l-1.5,7.7h-5l7.9-35.6h6.1l7.9,35.6h-5L274,91.2z M266.2,86.3h6.9l-3.4-17.5h-0.1L266.2,86.3z"/>
<path class="st0" d="M289.6,86.8V75.5c0-9.2,3.1-12.8,10-12.8c6.7,0,9.7,3.4,9.7,11.4h-4.8c0-4.4-1.4-6.2-4.9-6.2
	c-3.6,0-5.2,1.7-5.2,7v12.5c0,5.5,1.7,7,5.4,7c3.6,0,5.1-1.5,5.1-6.2v-4.8h-5.2v-4.9h10v20.5h-2.4l-0.8-2.8c-1.7,2.2-3.6,3.4-7,3.4
	C292.6,99.5,289.6,96,289.6,86.8z"/>
<path class="st0" d="M321.5,63.4h16.9v5.1h-12v9.9h10.5v4.9h-10.5v10.5h12v5.1h-16.9V63.4z"/>
<path class="st0" d="M350,98.9V63.4h9.2c7,0,10.6,2.3,10.6,12.6v10.2c0,10.3-3.7,12.7-10.6,12.7H350z M354.8,68.5v25.3h4.2
	c4.3,0,5.9-1.9,5.9-7.2V75.4c0-6.3-2.1-6.9-5.9-6.9H354.8z"/>
<g>
	<path class="st1" d="M156.4,44.2h4.5c0,7-2.8,10-9.1,10c-6.5,0-9.4-3.1-9.4-11.2V33c0-8.1,2.9-11.2,9.4-11.2c6.3,0,9.1,3,9.1,10
		h-4.5c0-3.9-1.4-5.5-4.6-5.5c-3.4,0-4.8,1.5-4.8,6.2v11c0,4.7,1.5,6.2,4.8,6.2C155,49.7,156.4,48.2,156.4,44.2z"/>
	<path class="st1" d="M186.4,53.7h-4.5V39.9h-9.1v13.8h-4.5V22.3h4.5v13.3h9.1V22.3h4.5V53.7z"/>
	<path class="st1" d="M194.6,22.3h8.8c6.3,0,9.4,1.9,9.4,10c0,5.2-1.4,7.9-4.4,9.1l4.9,12.2h-5L204,42.3h-4.8v11.4h-4.5V22.3z
		 M203.5,37.9c3.3,0,4.7-1,4.7-5.5c0-4.5-1.4-5.6-4.7-5.6h-4.4v11.1H203.5z"/>
	<path class="st1" d="M220.4,22.3h4.5v31.4h-4.5V22.3z"/>
	<path class="st1" d="M246,30.9c0-3.3-1.3-4.5-4.5-4.5c-3.1,0-4.6,1.3-4.6,4.3c0,3.2,0.9,4.4,5.5,5.2c6.9,1.2,8.7,3.6,8.7,8.9
		c0,6.9-3.3,9.5-9.6,9.5c-6.2,0-9.4-2.5-9.4-9.5h4.5c0,3.6,1.4,4.9,4.9,4.9c3.6,0,5-1.3,5-4.9c0-3-0.9-4.2-5.9-5.1
		c-5.6-1-8.2-3.4-8.2-9.1c0-5.5,2.8-8.8,9.1-8.8c6.2,0,9.1,2.5,9.1,9.1H246z"/>
	<path class="st1" d="M262.6,26.9h-6.3v-4.5h17.2v4.5h-6.3v26.8h-4.5V26.9z"/>
	<path class="st1" d="M279.8,22.3h4.5v31.4h-4.5V22.3z"/>
	<path class="st1" d="M304.8,46.9h-8.3l-1.4,6.8h-4.7l7.4-31.4h5.7l7.4,31.4h-4.7L304.8,46.9z M297.5,42.6h6.4l-3.2-15.4h-0.1
		L297.5,42.6z"/>
	<path class="st1" d="M335.5,53.7h-5.7l-8.6-24.8c0.1,2.3,0.2,7,0.2,9.4v15.4h-4.4V22.3h5.7l8.6,24.8c0-2.5-0.2-6.9-0.2-8.9V22.3
		h4.4V53.7z"/>
	<path class="st1" d="M343.8,22.3h4.5v31.4h-4.5V22.3z"/>
	<path class="st1" d="M361,26.9h-6.3v-4.5h17.2v4.5h-6.3v26.8H361V26.9z"/>
	<path class="st1" d="M384.4,41.8l-7.7-19.5h4.9l5,14.2h0.1l5-14.2h4.9l-7.7,19.5v11.9h-4.5V41.8z"/>
</g>
<g>
	<g>
		<g>
			<radialGradient id="SVGID_1_" cx="59.114" cy="59.133" r="59.0862" gradientUnits="userSpaceOnUse">
				<stop  offset="0.1618" style="stop-color:#27AAE1"/>
				<stop  offset="0.2665" style="stop-color:#21A5DD;stop-opacity:0.9923"/>
				<stop  offset="0.4067" style="stop-color:#0997D2;stop-opacity:0.9819"/>
				<stop  offset="0.567" style="stop-color:#0083C2;stop-opacity:0.9701"/>
				<stop  offset="0.7411" style="stop-color:#006BAF;stop-opacity:0.9572"/>
				<stop  offset="0.839" style="stop-color:#005DA4;stop-opacity:0.95"/>
			</radialGradient>
			<path class="st2" d="M96.1,60.6l12.2,12.2l-2.1,2.1L90.1,58.8l15.6-15.6l2.1,2.1L95.6,57.6h22.5c-0.4-14.9-6.3-28.5-15.8-38.7
				L70.6,50.3h16.6v3H65.1V27.7h3v20.8l32.2-31.8C90,6.7,76,0.4,60.6,0V19L72.8,6.8l2.1,2.1L58.9,24.9L43.3,9.3l2.1-2.1l12.2,12.2V0
				C42.4,0.4,28.7,6.5,18.4,16.2l32.4,32.2V27.7h3v25.5H31.7v-3h16.6L16.2,18.5C6.5,28.7,0.4,42.4,0,57.6h22.8L10.7,45.4l2.1-2.1
				l16.1,16.1L13.2,74.9l-2.1-2.1l12.2-12.2H0c0.4,15.2,6.5,29.1,16.3,39.3L49,67.3H31.7v-3h22.1v40.2h-3V69.7l-32.3,32.3
				c10.6,10,24.9,16.1,40.6,16.1c16,0,30.5-6.4,41.2-16.7L68.1,69.7v34.8h-3V64.3h22.1v3H70l32.4,32.1c9.5-10.2,15.4-23.8,15.8-38.8
				H96.1z"/>
		</g>
		<defs>
			<filter id="Adobe_OpacityMaskFilter" filterUnits="userSpaceOnUse" x="0" y="0" width="118.2" height="118.2">
				
					<feColorMatrix  type="matrix" values="-1 0 0 0 1  0 -1 0 0 1  0 0 -1 0 1  0 0 0 1 0" color-interpolation-filters="sRGB" result="source"/>
			</filter>
		</defs>
		<mask maskUnits="userSpaceOnUse" x="0" y="0" width="118.2" height="118.2" id="SVGID_2_">
			<g class="st3">
				
					<image style="overflow:visible;" width="510" height="510" xlink:href="B884102.jpg"  transform="matrix(0.24 0 0 0.24 -2.1148 -2.1145)">
				</image>
			</g>
		</mask>
		<g class="st4">
			<path class="st5" d="M96.1,60.6l12.2,12.2l-2.1,2.1L90.1,58.8l15.6-15.6l2.1,2.1L95.6,57.6h22.5c-0.4-14.9-6.3-28.5-15.8-38.7
				L70.6,50.3h16.6v3H65.1V27.7h3v20.8l32.2-31.8C90,6.7,76,0.4,60.6,0V19L72.8,6.8l2.1,2.1L58.9,24.9L43.3,9.3l2.1-2.1l12.2,12.2V0
				C42.4,0.4,28.7,6.5,18.4,16.2l32.4,32.2V27.7h3v25.5H31.7v-3h16.6L16.2,18.5C6.5,28.7,0.4,42.4,0,57.6h22.8L10.7,45.4l2.1-2.1
				l16.1,16.1L13.2,74.9l-2.1-2.1l12.2-12.2H0c0.4,15.2,6.5,29.1,16.3,39.3L49,67.3H31.7v-3h22.1v40.2h-3V69.7l-32.3,32.3
				c10.6,10,24.9,16.1,40.6,16.1c16,0,30.5-6.4,41.2-16.7L68.1,69.7v34.8h-3V64.3h22.1v3H70l32.4,32.1c9.5-10.2,15.4-23.8,15.8-38.8
				H96.1z"/>
		</g>
	</g>
	<g>
		<path class="st6" d="M31.7,50.3v3h22.1V27.7h-3v20.8L18.4,16.2c-0.8,0.7-1.5,1.5-2.2,2.2l32.1,31.8H31.7z"/>
		<path class="st6" d="M11.1,72.8l2.1,2.1l15.6-15.6L12.8,43.2l-2.1,2.1l12.2,12.2H0c0,0.5,0,1,0,1.5c0,0.5,0,1,0,1.5h23.3
			L11.1,72.8z"/>
		<path class="st6" d="M45.4,7.2l-2.1,2.1l15.6,15.6L74.9,8.9l-2.1-2.1L60.6,19V0c-0.5,0-1,0-1.5,0c-0.5,0-1,0-1.5,0v19.4L45.4,7.2z
			"/>
		<path class="st6" d="M107.8,45.4l-2.1-2.1L90.1,58.8l16.1,16.1l2.1-2.1L96.1,60.6h22.1c0-0.5,0-1,0-1.5c0-0.5,0-1,0-1.5H95.6
			L107.8,45.4z"/>
		<path class="st6" d="M68.1,27.7h-3v25.5h22.1v-3H70.6l31.7-31.4c-0.7-0.7-1.4-1.4-2.1-2.1L68.1,48.5V27.7z"/>
		<path class="st6" d="M87.2,67.3v-3H65.1v40.2h3V69.7l32.1,31.8c0.7-0.7,1.4-1.4,2.1-2.2L70,67.3H87.2z"/>
		<path class="st6" d="M50.8,104.5h3V64.3H31.7v3H49L16.3,99.9c0.7,0.7,1.4,1.5,2.2,2.2l32.3-32.3V104.5z"/>
	</g>
</g>
<path class="st0" d="M374.5,64h-1.6v5.6H372V64h-1.6v-0.7h4.1V64z"/>
<path class="st0" d="M376.3,63.4l1.5,5.1h0l1.5-5.1h1.1v6.3h-0.9v-2.4l0.1-2.4l0,0l-1.5,4.8h-0.6l-1.5-4.8l0,0l0.1,2.4v2.4h-0.9
	v-6.3H376.3z"/>
</svg>
